<svg width="0" height="0" class="hidden">
  <symbol xmlns="http://www.w3.org/2000/svg" viewBox="0 0 128 128" id="support">
    <title>a</title>
    <path d="M63.807 1.632A62.061 62.061 0 002.214 54.115l11.174 1.779a51.064 51.064 0 01101.478 8.11 51.472 51.472 0 01-1.001 10.119l11.094 2.226A62.424 62.424 0 0063.807 1.632zM74.856 102.24a41.718 41.718 0 01-23.76 3.394 42.592 42.592 0 01-12.334-3.79 43.023 43.023 0 01-11.202-7.525 47.192 47.192 0 01-8.882-10.805 54.08 54.08 0 01-5.572-13.408l-5.502.663-5.785.017.04.677a62.384 62.384 0 00109.13 33.317V84.845l-19.896 2.714a37.817 37.817 0 01-16.237 14.68z"></path>
    <path d="M52.45 50.544a2.004 2.004 0 00-2.004 2.004v9.97a4.99 4.99 0 005.152 5.152h5.343v7.782a2.004 2.004 0 104.008 0V52.548a2.004 2.004 0 10-4.008 0v11.114h-5.343a1.012 1.012 0 01-1.145-1.144v-9.97a2.004 2.004 0 00-2.003-2.004zM30.81 74.035a2.004 2.004 0 001.417 3.421H46.05a2.004 2.004 0 000-4.008h-8.985l8.52-8.52A8.426 8.426 0 0033.67 53.012l-1.425 1.424a2.004 2.004 0 002.834 2.834l1.424-1.425a4.419 4.419 0 016.25 6.249zm54.188 4.005a1.985 1.985 0 00.76.151 2.006 2.006 0 001.854-1.244l10.014-24.373a2.004 2.004 0 00-1.853-2.765h-14.61a2.004 2.004 0 100 4.008h11.62l-8.877 21.608a2.003 2.003 0 001.092 2.614zm-15.651 3.888a2.004 2.004 0 001.974-1.668l5.417-31.847a2.004 2.004 0 00-3.951-.671L67.37 79.589a2.004 2.004 0 001.977 2.34z"></path>
  </symbol>
  <symbol xmlns="http://www.w3.org/2000/svg" viewBox="0 0 16 11" id="tick">
    <path d="M2 4l4 4 8-8" fill="none" stroke="#2dd5a7" stroke-width="2"></path>
  </symbol>
  <symbol xmlns="http://www.w3.org/2000/svg" shape-rendering="geometricPrecision" text-rendering="geometricPrecision" image-rendering="optimizeQuality" fill-rule="evenodd" clip-rule="evenodd" viewBox="0 0 6.827 6.827" id="wordpress">
    <path d="M4.914 2.587c.047.083.1.18.14.294.04.116.07.25.07.409 0 .108-.017.231-.049.367-.031.134-.079.28-.141.442l-.245.816-.101.002-.887-2.637-.022-.066.07-.004c.143-.008.272-.023.277-.023.023-.003.037-.016.042-.03a.056.056 0 00.002-.023.054.054 0 00-.006-.021c-.007-.014-.021-.023-.043-.023-.001 0-.4.032-.658.032-.243 0-.65-.031-.65-.031a.045.045 0 00-.045.025.06.06 0 00-.003.044c.005.014.018.025.04.026h.002s.126.016.255.024l.035.002.012.033.382 1.047v.035l-.537 1.61h-.1L1.86 2.28l-.022-.066.07-.004c.142-.008.272-.023.277-.023.023-.003.037-.016.042-.03a.056.056 0 00.002-.023.055.055 0 00-.006-.021c-.007-.014-.022-.023-.043-.023-.001 0-.4.032-.659.032l-.138-.002h-.02l-.096-.003.052-.08A2.504 2.504 0 013.414.906a2.497 2.497 0 011.692.659l-.039.092h-.013l-.015-.002a.342.342 0 00-.252.11.4.4 0 00-.107.272c0 .173.096.327.204.502l.029.046v.002zm.04.33a1.673 1.673 0 00-.133-.278l-.027-.044c-.118-.19-.22-.356-.22-.558 0-.13.05-.255.136-.346a.45.45 0 01.228-.131 2.4 2.4 0 00-1.524-.547 2.386 2.386 0 00-1.95 1.002h.057c.256 0 .65-.03.65-.03h.002c.07-.005.118.03.144.077a.162.162 0 01.01.128.15.15 0 01-.13.102s-.095.012-.214.02l.82 2.441.481-1.442-.363-.997a3.73 3.73 0 01-.226-.022.142.142 0 01-.13-.099.164.164 0 01.007-.122.147.147 0 01.147-.087h.002s.402.032.642.032c.255 0 .648-.032.65-.032h.001c.07-.004.119.03.144.078a.162.162 0 01.01.128.15.15 0 01-.13.102s-.094.012-.214.02l.811 2.412.197-.656.001-.004c.062-.157.108-.3.138-.43a1.54 1.54 0 00.046-.344 1.11 1.11 0 00-.064-.374zm.393.43c.069-.172.115-.326.143-.467a1.962 1.962 0 00.024-.637l.099-.032a2.49 2.49 0 01.307 1.202c0 .454-.12.88-.332 1.248-.22.38-.535.698-.914.919l-.077-.064.75-2.166v-.003zm.247-.447c-.03.149-.077.31-.148.487l-.7 2.022a2.388 2.388 0 00.993-2.59 2.382 2.382 0 00-.103-.312 2.073 2.073 0 01-.042.393z"></path>
    <path d="M3.414 5.92a2.507 2.507 0 01-.709-.102l-.053-.016.018-.052.736-2.14h.1l.754 2.065a.117.117 0 00.014.025l.034.056-.062.022a2.488 2.488 0 01-.832.142zm-.343-.13a2.402 2.402 0 001.084-.094l-.697-1.908L2.79 5.73c.092.025.186.044.282.058zM.907 3.413a2.5 2.5 0 01.217-1.02l.099.004 1.17 3.206-.073.066a2.516 2.516 0 01-1.032-.927 2.495 2.495 0 01-.381-1.329zm.159-.498a2.393 2.393 0 00.312 1.77c.214.343.514.628.868.826L1.17 2.56a2.406 2.406 0 00-.104.354z"></path>
    <path d="M1.015 3.413c0 .663.268 1.263.702 1.697a2.391 2.391 0 001.697.702c.662 0 1.262-.268 1.696-.702a2.391 2.391 0 00.703-1.697c0-.662-.269-1.262-.703-1.696a2.391 2.391 0 00-1.696-.703c-.663 0-1.263.269-1.697.703a2.392 2.392 0 00-.702 1.696zm.627 1.772a2.498 2.498 0 01-.734-1.772c0-.692.28-1.318.734-1.771A2.498 2.498 0 013.414.908c.691 0 1.318.28 1.771.734.454.453.734 1.08.734 1.771 0 .692-.28 1.319-.734 1.772a2.498 2.498 0 01-1.771.734c-.692 0-1.319-.28-1.772-.734z"></path>
    <path fill="none" d="M0 0h6.827v6.827H0z"></path>
  </symbol>
  <symbol fill="#4a90e2" xmlns="http://www.w3.org/2000/svg" viewBox="0 0 64 64" id="wordpessblue">
    <path d="M31 4C19.902 4 10.242 10.27 5.367 19.453c-.015.031-.035.067-.047.102A28.78 28.78 0 002 33c0 12.578 8.05 23.309 19.27 27.316A28.839 28.839 0 0031 62c15.988 0 29-13.012 29-29a28.836 28.836 0 00-4.973-16.219 3.987 3.987 0 00-.242-.441 4.693 4.693 0 00-.633-.781C48.852 8.543 40.45 4 31 4zm0 2c7.48 0 14.254 3.059 19.152 7.984a6.767 6.767 0 00-1.078.09c-2.55.442-4.488 2.313-5.062 4.875-.63 2.805.488 4.988 1.566 7.098 1.11 2.16 2.16 4.207 1.348 6.879l-3.692 9.465L35.454 22H37c.555 0 1-.445 1-1 0-.555-.445-1-1-1H23c-.555 0-1 .445-1 1 0 .555.445 1 1 1h1.98l3.602 9.238-4.348 11.153L16.454 22H19c.555 0 1-.445 1-1 0-.555-.445-1-1-1H7.348v-.004C11.949 11.66 20.824 6 31 6zm.012 3c-.555 0-1 .445-1 1v2c0 .555.445 1 1 1 .554 0 1-.445 1-1v-2c0-.555-.446-1-1-1zm-5.426.742a1 1 0 00-1.105 1.246L25 12.922a.996.996 0 001.223.707 1 1 0 00.71-1.223l-.523-1.933a.983.983 0 00-.824-.73zm10.855 0a1.003 1.003 0 00-.832.73l-.515 1.934a.998.998 0 00.968 1.258c.438 0 .844-.293.965-.742l.516-1.934a1 1 0 00-1.102-1.246zm-16.304 2.149a.998.998 0 00-.742 1.488l1 1.73a1 1 0 00.87.5.99.99 0 00.497-.129c.48-.277.644-.89.367-1.37l-1-1.731a1.001 1.001 0 00-.992-.488zm21.75 0a.998.998 0 00-.992.492l-1 1.73a1.003 1.003 0 00.867 1.5c.347 0 .683-.18.867-.5l1-1.73a1.002 1.002 0 00-.742-1.492zm8.46 4.09c.903.035 1.72.351 2.298.898.207.273.402.555.593.836 1.489 3.191-1.433 12.433-3.734 17.726l-8.566 21.98-8.57-21.98c-.005-.004-.009-.007-.009-.015-.03-.074-.086-.14-.132-.207-.028-.035-.051-.086-.086-.121-.036-.035-.09-.059-.133-.094-.063-.043-.121-.09-.192-.117-.003-.004-.007-.012-.015-.012-.047-.02-.098-.016-.145-.027-.074-.016-.144-.04-.218-.04-.075 0-.149.024-.22.04-.05.011-.097.007-.144.027-.008 0-.012.008-.015.012-.075.027-.137.078-.2.125-.043.031-.093.05-.129.086-.035.039-.054.086-.085.125-.047.066-.098.129-.13.199-.003.008-.007.012-.011.02l-8.567 21.98L8.126 22h6.188l8.98 23.523c.004.008.012.016.016.024.011.031.027.055.043.082.043.078.09.148.148.215.027.027.055.05.082.078.066.055.145.101.227.14.02.012.03.028.054.036.012.004.02 0 .032.007.105.036.218.063.332.063a.996.996 0 00.324-.063c.012-.003.02 0 .031-.007.023-.008.04-.024.059-.035a.826.826 0 00.222-.141.927.927 0 00.234-.29c.016-.027.036-.05.048-.081l.011-.024 5.41-13.87.012-.032.012-.023c.008-.028.004-.059.012-.086a.992.992 0 00.05-.282c0-.066-.02-.129-.035-.195-.012-.055-.008-.105-.027-.16L27.129 22h6.183l8.985 23.523.012.024c.011.031.03.055.046.082.04.078.086.148.145.215.027.027.055.05.082.078.07.055.145.101.227.14.02.012.03.028.054.036.012.004.02.004.032.007.105.036.218.063.335.063.004 0 .004-.004.008-.004.051 0 .102-.02.153-.027.062-.012.129-.012.191-.035.012-.004.012-.008.023-.012.07-.028.13-.078.192-.121.043-.035.098-.059.137-.094.035-.04.058-.086.086-.129.046-.066.097-.125.125-.195.003-.008.011-.012.015-.02l4.653-11.949c1.074-3.52-.266-6.14-1.45-8.45-1.004-1.956-1.867-3.648-1.398-5.745.398-1.785 1.691-3.035 3.457-3.34.312-.059.625-.078.926-.067zm5.212 5.824A26.83 26.83 0 0158 33c0 10.488-6.016 19.594-14.777 24.063l8.132-20.86c.48-1.113 3.645-8.578 4.204-14.398zm-49.407.633l13.7 35.14C10.512 53.328 4 43.914 4 33c0-3.746.766-7.316 2.152-10.563zm25.285 16.125l7.848 20.128A26.794 26.794 0 0131 60c-2.605 0-5.121-.379-7.504-1.066z"></path>
  </symbol>
  <symbol xmlns="http://www.w3.org/2000/svg" viewBox="0 0 64 64" id="easystart">
    <path d="M31 46h2v2h-2zm-4 0h2v2h-2zm8 0h2v2h-2zM6 4h2v2H6zm4 0h2v2h-2zm4 0h2v2h-2zm-3 28h8a1 1 0 010 2h-3c-1.654 0-3 1.346-3 3s1.346 3 3 3h15a1 1 0 00.709-.295C31.966 39.447 38 33.322 38 28c0-5.01-2.617-8-7-8s-7 2.99-7 8c0 3.69 2.898 7.761 4.762 10H16a1 1 0 010-2h3c1.654 0 3-1.346 3-3s-1.346-3-3-3h-5.762C15.102 27.761 18 23.69 18 20c0-5.01-2.617-8-7-8s-7 2.99-7 8c0 5.322 6.034 11.447 6.291 11.705A1 1 0 0011 32zm20-10c3.225 0 5 2.131 5 6 0 3.523-3.471 7.811-5 9.529-1.529-1.719-5-6.006-5-9.529 0-3.869 1.775-6 5-6zm-20-8c3.225 0 5 2.131 5 6 0 3.523-3.471 7.811-5 9.529C9.471 27.811 6 23.523 6 20c0-3.869 1.775-6 5-6z"></path>
    <path d="M14 19c0-1.654-1.346-3-3-3s-3 1.346-3 3 1.346 3 3 3 3-1.346 3-3zm-4 0a1 1 0 112 0 1 1 0 01-2 0zm24 8c0-1.654-1.346-3-3-3s-3 1.346-3 3 1.346 3 3 3 3-1.346 3-3zm-4 0a1 1 0 112 0 1 1 0 01-2 0z"></path>
    <path d="M59 0H5C2.243 0 0 2.368 0 5.125V47c0 2.757 2.243 5 5 5h17.557l-2.25 6H14a1 1 0 00-1 1c0 2.757 2.243 5 5 5h28c2.757 0 5-2.243 5-5a1 1 0 00-1-1h-6.307l-2.25-6H59c2.757 0 5-2.243 5-5V5.125C64 2.368 61.757 0 59 0zM5 2h54c1.654 0 3 1.471 3 3.125V8H4v2h58v32H2V5.125C2 3.471 3.346 2 5 2zm41 60H18a3.006 3.006 0 01-2.829-2h33.658A3.006 3.006 0 0146 62zm-4.443-4H22.443l2.25-6h14.613l2.251 6zM59 50H5c-1.654 0-3-1.346-3-3v-3h60v3c0 1.654-1.346 3-3 3z"></path>
    <path d="M41 24h7a1 1 0 001-1v-4a1 1 0 00-1-1h-7a1 1 0 00-1 1v4a1 1 0 001 1zm1-4h5v2h-5v-2zm10 4h7a1 1 0 001-1v-4a1 1 0 00-1-1h-7a1 1 0 00-1 1v4a1 1 0 001 1zm1-4h5v2h-5v-2zm-13 6h20v2H40zm0 4h20v2H40zm0 4h20v2H40zm0-21h3v2h-3zm5 0h4v2h-4zm6 0h9v2h-9z"></path>
  </symbol>
  <symbol xmlns="http://www.w3.org/2000/svg" shape-rendering="geometricPrecision" text-rendering="geometricPrecision" image-rendering="optimizeQuality" fill-rule="evenodd" clip-rule="evenodd" viewBox="0 0 6720 6720" id="fastwebsite">
    <path d="M880 1270h4960c44 0 80 36 80 80v3495c0 44-36 80-80 80H880c-44 0-80-36-80-80V1350c0-44 36-80 80-80zm4880 160H960v3335h4800V1430z"></path>
    <path d="M2894 4766h932c44 0 80 36 80 80v524c0 44-36 80-80 80h-932c-44 0-80-36-80-80v-524c0-44 36-80 80-80zm852 160h-772v364h772v-364z"></path>
    <path d="M2122 5290c-44 0-80 36-80 80s36 80 80 80h2476c44 0 80-36 80-80s-36-80-80-80H2122zm2228-3412c337 0 642 137 862 357 221 221 357 526 357 862 0 337-137 642-357 862-221 221-526 357-862 357-337 0-642-137-862-357-221-221-357-526-357-862 0-337 137-642 357-862 221-221 526-357 862-357zm749 470c-192-192-457-310-749-310-293 0-558 119-749 310-192 192-310 457-310 749 0 293 119 558 310 749 192 192 457 310 749 310 293 0 558-119 749-310 192-192 310-457 310-749 0-293-119-558-310-749z"></path>
    <path d="M4350 1878c201 0 379 144 504 376 117 217 189 516 189 844s-72 626-189 844c-125 232-303 376-504 376s-379-144-504-376c-117-217-189-516-189-844s72-626 189-844c125-232 303-376 504-376zm364 452c-97-180-226-292-364-292s-267 111-364 292c-105 195-170 467-170 768s65 573 170 768c97 180 226 292 364 292s267-111 364-292c105-195 170-467 170-768s-65-573-170-768z"></path>
    <path d="M3355 2496c-44 0-80 36-80 80s36 80 80 80h1991c44 0 80-36 80-80s-36-80-80-80H3355zm-97 522c-44 0-80 36-80 80s36 80 80 80h2232c44 0 80-36 80-80s-36-80-80-80H3258zm97 522c-44 0-80 36-80 80s36 80 80 80h1991c44 0 80-36 80-80s-36-80-80-80H3355zM1231 2445c-44 0-80 36-80 80s36 80 80 80h1694c44 0 80-36 80-80s-36-80-80-80H1231zm0 573c-44 0-80 36-80 80s36 80 80 80h1694c44 0 80-36 80-80s-36-80-80-80H1231zm0 572c-44 0-80 36-80 80s36 80 80 80h1694c44 0 80-36 80-80s-36-80-80-80H1231z"></path>
    <path fill="none" d="M0 0h6720v6720H0z"></path>
  </symbol>
  <symbol xmlns="http://www.w3.org/2000/svg" viewBox="0 0 128 128" id="git">
    <title>b</title>
    <path fill="#1d75b8" d="M79.158 5.642H41.401l10.876 10.877L8.446 65.781l10.573 10.573 49.262-43.831L79.158 43.4V5.642z"></path>
    <path d="M94.952 122.269V5.642h30.433v116.627zm-15.794.089H48.764v-57.13h30.394zM2.615 89.9h30.272v32.382H2.615z"></path>
  </symbol>
</svg>